# xmcd
#
# Track frame offsets:
#	150
#	15156
#	37082
#	56400
#	79438
#	102802
#	131747
#	152172
#
# Disc length: 2221 seconds
#
# Revision: 0
# Processed by: cddbd v1.5PL3 Copyright (c) Steve Scherf et al.
# Submitted via: audiograbber 1.83.01
#
DISCID=5e08ab08
DTITLE=Chris Anderson Group - Chris Anderson Group
DYEAR=2003
DGENRE=Blues
TTITLE0=Blue Collar Blues
TTITLE1=Trouble With You
TTITLE2=Ain't No Love Song
TTITLE3=I'm So Tired
TTITLE4=Outta Love
TTITLE5=Crazy 'Bout My Baby
TTITLE6=Whole Lotta Lovin'
TTITLE7=Empathy
EXTD=http://www.chrisandersongroup.8m.com
EXTT0=
EXTT1=
EXTT2=
EXTT3=
EXTT4=
EXTT5=
EXTT6=
EXTT7=
PLAYORDER=
